<svg xmlns="http://www.w3.org/2000/svg" width="137" height="38" viewBox="0 0 137 38" fill="none">
  <g clip-path="url(#clip0_55_7785)">
    <mask id="mask0_55_7785" style="mask-type:luminance" maskUnits="userSpaceOnUse" x="0" y="0" width="137" height="38">
      <path d="M136.254 0H0V37.6973H136.254V0Z" fill="white"/>
    </mask>
    <g mask="url(#mask0_55_7785)">
      <path d="M0.697079 35.8066L1.15552 33.3173L0 29.7073H1.35962L1.73956 31.2531C1.84632 31.7587 1.90912 32.0485 1.96878 32.3577H1.98762C2.16346 32.0356 2.3393 31.6878 2.59677 31.2434L3.48853 29.7041H4.99259L2.42722 33.2851L1.95936 35.8002L0.697079 35.8066Z" fill="black"/>
      <path d="M8.27313 33.1022C8.27313 34.7124 7.19611 35.9071 5.69833 35.9071C5.45797 35.9245 5.21672 35.8897 4.99042 35.805C4.76412 35.72 4.55792 35.587 4.38531 35.4144C4.21271 35.2421 4.07766 35.0341 3.98898 34.8041C3.90031 34.5745 3.86006 34.3282 3.87086 34.0812C3.87086 32.5419 4.91334 31.2859 6.44565 31.2859C6.68498 31.27 6.92488 31.3057 7.14992 31.3908C7.37493 31.476 7.58004 31.6085 7.75195 31.78C7.9239 31.9515 8.05882 32.1581 8.14806 32.3863C8.2373 32.6146 8.27884 32.8597 8.26999 33.1054M5.18338 34.0554C5.18338 34.5707 5.43143 34.9152 5.87103 34.9152C6.56811 34.9152 6.95747 33.8751 6.95747 33.1151C6.95747 32.7093 6.79105 32.2746 6.27923 32.2746C5.54761 32.2746 5.17709 33.3695 5.18651 34.0554" fill="black"/>
      <path d="M13.3352 31.3818L12.7794 34.3671C12.6726 34.9274 12.613 35.4073 12.5502 35.8066H11.4323L11.5108 35.082H11.492C11.326 35.329 11.1062 35.5329 10.8501 35.6778C10.594 35.8224 10.3084 35.9042 10.0162 35.9161C9.32854 35.9161 8.91406 35.5168 8.91406 34.6762C8.91613 34.4022 8.94562 34.1291 9.00198 33.8615L9.451 31.3915H10.707L10.2737 33.7617C10.2373 33.9526 10.2162 34.1465 10.2109 34.3413C10.2109 34.6312 10.3176 34.8566 10.6442 34.8566C11.0775 34.8566 11.5171 34.322 11.6835 33.4364L12.0635 31.3915L13.3352 31.3818Z" fill="black"/>
      <path d="M13.5938 35.807L14.0773 33.176C14.1998 32.5061 14.2531 31.7655 14.2971 31.3855H15.3992C15.3741 31.685 15.3459 31.9812 15.3207 32.2904H15.3553C15.4714 32.0088 15.6615 31.7658 15.9043 31.5884C16.1471 31.411 16.4332 31.3062 16.7306 31.2856C16.8101 31.2811 16.8898 31.2811 16.9692 31.2856L16.7212 32.5512C16.6532 32.5464 16.5851 32.5464 16.5171 32.5512C15.707 32.5512 15.327 33.2919 15.1669 34.1614L14.8529 35.807H13.5938Z" fill="black"/>
      <path d="M19.6529 29.7975C20.1956 29.7046 20.745 29.6594 21.2951 29.6622C22.2214 29.6622 22.9625 29.878 23.4649 30.3063C23.7284 30.5427 23.936 30.8375 24.072 31.1684C24.208 31.4992 24.2688 31.8574 24.2499 32.216C24.2623 32.748 24.1584 33.2758 23.946 33.7611C23.7336 34.2464 23.4179 34.6769 23.0221 35.0209C22.3345 35.5812 21.4521 35.826 20.1742 35.826C19.6311 35.8321 19.0884 35.7957 18.5508 35.7165L19.6529 29.7975ZM20.0046 34.7536C20.1886 34.7813 20.3745 34.7932 20.5604 34.789C20.8744 34.8003 21.1872 34.742 21.4775 34.6187C21.7678 34.4953 22.029 34.3098 22.2434 34.0741C22.6669 33.563 22.8907 32.909 22.8714 32.2385C22.8714 31.2724 22.3502 30.7088 21.3014 30.7088C21.1217 30.7039 20.942 30.7157 20.7645 30.7443L20.0046 34.7536Z" fill="black"/>
      <path d="M24.5137 35.8073L25.3332 31.3825H26.5892L25.7697 35.8073H24.5137ZM25.5091 30.1975C25.5091 30.0994 25.528 30.0023 25.5649 29.9117C25.6018 29.8213 25.6558 29.7392 25.7239 29.6703C25.792 29.6014 25.8727 29.547 25.9614 29.5104C26.0501 29.4737 26.1451 29.4555 26.2407 29.4568C26.3242 29.4526 26.4077 29.4665 26.4857 29.4974C26.5637 29.5283 26.6346 29.5756 26.6937 29.6362C26.7529 29.6969 26.799 29.7695 26.8291 29.8496C26.8592 29.9296 26.8727 30.0152 26.8687 30.1008C26.8706 30.2009 26.8523 30.3002 26.8148 30.3925C26.7773 30.4849 26.7215 30.5682 26.6509 30.6373C26.5804 30.7064 26.4966 30.7596 26.4049 30.7936C26.3131 30.8277 26.2155 30.8418 26.1182 30.8351C26.0342 30.8413 25.9498 30.8289 25.8709 30.7988C25.7919 30.7686 25.7202 30.7214 25.6607 30.6603C25.6011 30.5992 25.5551 30.5256 25.5256 30.4447C25.4962 30.3637 25.4842 30.2772 25.4902 30.191" fill="black"/>
      <path d="M27.133 36.4216C27.4885 36.5848 27.874 36.6683 28.2634 36.6663C28.8914 36.6663 29.375 36.3765 29.5508 35.4909L29.6199 35.1206H29.6011C29.4628 35.3238 29.2779 35.4886 29.0627 35.601C28.8475 35.7134 28.6085 35.7695 28.3671 35.7646C27.5098 35.7646 26.9918 35.0497 26.9823 34.1899C26.9751 33.8015 27.0455 33.4157 27.1892 33.0563C27.3328 32.6969 27.5467 32.3714 27.8176 32.0998C28.0885 31.8283 28.4107 31.6165 28.7644 31.4776C29.1181 31.3385 29.4958 31.2753 29.8743 31.2916C30.4218 31.2867 30.9645 31.3962 31.4695 31.6136L30.8163 35.259C30.6655 36.0738 30.4269 36.7984 29.9088 37.2234C29.4221 37.5741 28.8355 37.7484 28.2415 37.7194C27.7588 37.739 27.2782 37.6431 26.8379 37.4392L27.133 36.4216ZM30.1129 32.3736C29.9663 32.3179 29.8108 32.2905 29.6545 32.2931C28.8883 32.2931 28.3419 33.1723 28.3419 34.0128C28.3419 34.4572 28.5366 34.7824 28.9228 34.7824C29.3091 34.7824 29.7612 34.3123 29.8931 33.5619L30.1129 32.3736Z" fill="black"/>
      <path d="M31.7734 35.8073L32.593 31.3825H33.849L33.0294 35.8073H31.7734ZM32.7688 30.1975C32.7688 30.0994 32.788 30.0023 32.8247 29.9117C32.8618 29.8213 32.9158 29.7392 32.9839 29.6703C33.0517 29.6014 33.1327 29.547 33.2213 29.5104C33.3102 29.4737 33.405 29.4555 33.5004 29.4568C33.584 29.4526 33.6675 29.4665 33.7457 29.4974C33.8235 29.5283 33.8945 29.5756 33.9535 29.6362C34.0129 29.6969 34.0587 29.7695 34.0889 29.8496C34.119 29.9296 34.1325 30.0152 34.1284 30.1008C34.1306 30.2009 34.1121 30.3002 34.0747 30.3925C34.0374 30.4849 33.9815 30.5682 33.9108 30.6373C33.8402 30.7064 33.7563 30.7596 33.6647 30.7936C33.573 30.8277 33.4753 30.8418 33.378 30.8351C33.2941 30.8413 33.2097 30.8289 33.1309 30.7988C33.0517 30.7686 32.9801 30.7214 32.9205 30.6603C32.8611 30.5992 32.815 30.5256 32.7855 30.4447C32.7563 30.3637 32.744 30.2772 32.75 30.191" fill="black"/>
      <path d="M36.5524 30.1426L36.3231 31.3824H37.24L37.0548 32.3678H36.1379L35.8459 33.8685C35.8063 34.0527 35.7821 34.2401 35.7736 34.4289C35.7655 34.4794 35.7692 34.5313 35.7846 34.5799C35.7997 34.6285 35.8261 34.673 35.8616 34.7093C35.8967 34.7454 35.9401 34.7725 35.9875 34.7882C36.0349 34.8037 36.0854 34.8076 36.1347 34.7992C36.2522 34.8018 36.3699 34.7953 36.4864 34.7799L36.3357 35.8039C36.092 35.8757 35.8389 35.9096 35.5852 35.9038C34.8254 35.9038 34.4643 35.5044 34.4643 34.9377C34.4677 34.6607 34.4972 34.3844 34.5522 34.1133L34.8882 32.3485H34.3418L34.5176 31.3631H35.0734L35.2493 30.4324L36.5524 30.1426Z" fill="black"/>
      <path d="M39.9759 35.807C39.9759 35.5429 40.0104 35.2466 40.0387 34.9278H40.0135C39.8851 35.2119 39.6813 35.4534 39.4251 35.6241C39.1692 35.7951 38.8715 35.8885 38.566 35.8939C37.7904 35.8939 37.2598 35.2789 37.2598 34.3546C37.2598 32.8636 38.2206 31.2695 40.3464 31.2695C40.8303 31.2721 41.3113 31.3448 41.7751 31.4853L41.3166 33.8007C41.2008 34.4573 41.1449 35.1236 41.1502 35.7909L39.9759 35.807ZM40.3464 32.3065C40.2324 32.2843 40.1168 32.2723 40.001 32.2711C39.1814 32.2711 38.5817 33.3016 38.5817 34.126C38.5817 34.5607 38.7481 34.8602 39.1029 34.8602C39.4578 34.8602 39.9507 34.4158 40.1454 33.3305L40.3464 32.3065Z" fill="black"/>
      <path d="M42.041 35.8074L43.2405 29.3828H44.5122L43.3127 35.8074H42.041Z" fill="black"/>
      <path d="M48.0505 30.848H46.4805L46.7003 29.708H51.1182L50.9079 30.848H49.319L48.4116 35.8073H47.1399L48.0505 30.848Z" fill="black"/>
      <path d="M50.1836 35.807L50.6672 33.176C50.7896 32.5061 50.843 31.7655 50.8869 31.3855H51.9891C51.964 31.685 51.9357 31.9812 51.9106 32.2904H51.9357C52.0519 32.0088 52.2419 31.7658 52.4849 31.5884C52.7276 31.411 53.0137 31.3062 53.311 31.2856C53.3905 31.2811 53.4702 31.2811 53.5497 31.2856L53.3016 32.5512C53.2338 32.5464 53.1656 32.5464 53.0975 32.5512C52.2874 32.5512 51.9074 33.2919 51.7473 34.1614L51.4333 35.807H50.1836Z" fill="black"/>
      <path d="M56.1907 35.807C56.1907 35.5429 56.2252 35.2466 56.2535 34.9278H56.2284C56.1 35.2119 55.8959 35.4534 55.6399 35.6241C55.384 35.7951 55.0861 35.8885 54.7808 35.8939C54.0053 35.8939 53.4746 35.2789 53.4746 34.3546C53.4746 32.8636 54.4354 31.2695 56.5612 31.2695C57.0448 31.2721 57.5258 31.3448 57.9899 31.4853L57.5315 33.8007C57.4153 34.4573 57.3597 35.1236 57.3651 35.7909L56.1907 35.807ZM56.5612 32.3065C56.4472 32.2843 56.3317 32.2723 56.2158 32.2711C55.3963 32.2711 54.7965 33.3016 54.7965 34.126C54.7965 34.5607 54.963 34.8602 55.3178 34.8602C55.6726 34.8602 56.1656 34.4158 56.3603 33.3305L56.5612 32.3065Z" fill="black"/>
      <path d="M58.3008 35.8065L58.8471 32.8213C58.9539 32.2609 59.023 31.7714 59.0764 31.3818H60.2036L60.1157 32.116H60.1345C60.3006 31.8597 60.5261 31.6497 60.7908 31.5047C61.0555 31.3597 61.351 31.2843 61.6512 31.2852C62.3577 31.2852 62.7533 31.7296 62.7533 32.4896C62.7461 32.7411 62.7219 32.9919 62.6811 33.2399L62.2038 35.8162H60.9478L61.3874 33.3397C61.4153 33.1758 61.4301 33.01 61.4314 32.8438C61.4314 32.5218 61.3246 32.3189 61.0075 32.3189C60.593 32.3189 60.1094 32.8535 59.9304 33.8292L59.5693 35.7936L58.3008 35.8065Z" fill="black"/>
      <path d="M63.4254 34.6285C63.7761 34.8162 64.1611 34.9261 64.5558 34.9505C64.9169 34.9505 65.1022 34.7702 65.1022 34.5512C65.1022 34.3322 64.9609 34.1809 64.5652 33.9812C64.0628 33.7268 63.6483 33.3565 63.6483 32.8058C63.6483 31.8912 64.4333 31.2858 65.5323 31.2858C65.9154 31.2677 66.2966 31.345 66.6439 31.5112L66.3299 32.4354C66.0602 32.3041 65.7653 32.2358 65.4664 32.2358C65.1304 32.2358 64.9012 32.3904 64.9012 32.6254C64.9012 32.8058 65.077 32.9475 65.4319 33.131C65.8997 33.3758 66.3927 33.7268 66.3927 34.3419C66.3927 35.3563 65.5543 35.8973 64.4176 35.8973C63.9539 35.916 63.4948 35.7962 63.0957 35.5527L63.4254 34.6285Z" fill="black"/>
      <path d="M67.0859 35.8067L67.7139 32.3706H67.1644L67.3497 31.3852H67.9055L67.9494 31.1501C68.0182 30.5982 68.2738 30.0887 68.6716 29.7106C69.0174 29.4235 69.4516 29.2727 69.8962 29.2855C70.1273 29.2764 70.3575 29.3136 70.5745 29.395L70.3547 30.4352C70.2241 30.3774 70.0824 30.3499 69.9402 30.3547C69.5351 30.3547 69.2777 30.725 69.1992 31.1694L69.1552 31.3852H69.9904L69.8052 32.3706H68.9574L68.3294 35.8067H67.0859Z" fill="black"/>
      <path d="M74.3864 33.1022C74.3864 34.7124 73.3094 35.9071 71.8116 35.9071C71.5714 35.9245 71.3302 35.8897 71.1038 35.805C70.8774 35.72 70.6714 35.587 70.4987 35.4144C70.326 35.2421 70.191 35.0341 70.1025 34.8041C70.0136 34.5745 69.9734 34.3282 69.9841 34.0812C69.9841 32.5419 71.0266 31.2859 72.5589 31.2859C72.7985 31.27 73.0384 31.3057 73.2632 31.3908C73.4883 31.476 73.6934 31.6085 73.8654 31.78C74.0372 31.9515 74.1722 32.1581 74.2614 32.3863C74.3506 32.6146 74.3923 32.8597 74.3832 33.1054M71.2966 34.0554C71.2966 34.5707 71.5447 34.9152 71.9843 34.9152C72.6814 34.9152 73.0707 33.8751 73.0707 33.1151C73.0707 32.7093 72.9043 32.2746 72.3925 32.2746C71.6609 32.2746 71.2903 33.3695 71.2998 34.0554" fill="black"/>
      <path d="M74.7695 35.807L75.2531 33.176C75.3756 32.5061 75.4289 31.7655 75.4729 31.3855H76.5844C76.5593 31.685 76.5311 31.9812 76.5059 32.2904H76.5311C76.6472 32.0088 76.8372 31.7658 77.0803 31.5884C77.323 31.411 77.609 31.3062 77.9064 31.2856C77.9858 31.2811 78.0656 31.2811 78.145 31.2856L77.897 32.5512C77.8291 32.5464 77.761 32.5464 77.6929 32.5512C76.8827 32.5512 76.5028 33.2919 76.3427 34.1614L76.0287 35.807H74.7695Z" fill="black"/>
      <path d="M78.0312 35.8073L78.5682 32.8221C78.6655 32.2618 78.7346 31.7723 78.788 31.3826H79.8807L79.8022 32.0975H79.8211C79.9802 31.8461 80.1985 31.6398 80.456 31.4974C80.7131 31.3551 81.0014 31.2813 81.2937 31.2828C81.5358 31.2588 81.7776 31.332 81.9685 31.4869C82.1594 31.6417 82.2844 31.8664 82.3173 32.1137C82.4778 31.8601 82.6976 31.6515 82.956 31.5065C83.2148 31.3615 83.5046 31.2846 83.7994 31.2828C84.4714 31.2828 84.8576 31.7175 84.8576 32.4679C84.8513 32.7229 84.8249 32.977 84.7791 33.2279L84.3112 35.8041H83.0866L83.52 33.3889C83.5576 33.2098 83.5787 33.0276 83.5828 32.8446C83.5828 32.5226 83.4509 32.3197 83.1494 32.3197C82.7255 32.3197 82.3111 32.909 82.1446 33.7946L81.7835 35.8041H80.5589L80.9985 33.3696C81.0353 33.2034 81.0563 33.0343 81.0613 32.864C81.0613 32.5645 80.964 32.3229 80.6563 32.3229C80.223 32.3229 79.774 32.9477 79.6138 33.814L79.2621 35.8041L78.0312 35.8073Z" fill="black"/>
      <path d="M88.1829 35.807C88.1829 35.5429 88.2174 35.2466 88.2457 34.9278H88.2206C88.0921 35.2119 87.8884 35.4534 87.6321 35.6241C87.3762 35.7951 87.0786 35.8885 86.773 35.8939C85.9975 35.8939 85.4668 35.2789 85.4668 34.3546C85.4668 32.8636 86.4276 31.2695 88.5534 31.2695C89.0373 31.2721 89.5183 31.3448 89.9821 31.4853L89.5237 33.8007C89.4078 34.4573 89.3522 35.1236 89.3572 35.7909L88.1829 35.807ZM88.5534 32.3065C88.4397 32.2843 88.3242 32.2723 88.208 32.2711C87.3885 32.2711 86.7887 33.3016 86.7887 34.126C86.7887 34.5607 86.9552 34.8602 87.31 34.8602C87.6648 34.8602 88.1578 34.4158 88.3525 33.3305L88.5534 32.3065Z" fill="black"/>
      <path d="M92.7179 30.1426L92.4887 31.3824H93.4056L93.2266 32.3743H92.3097L92.0177 33.875C91.9778 34.0592 91.954 34.2466 91.9455 34.4353C91.9373 34.4859 91.9411 34.5377 91.9562 34.5863C91.9716 34.635 91.9979 34.6794 92.0331 34.7158C92.0686 34.7519 92.1116 34.7789 92.1593 34.7947C92.2068 34.8101 92.2573 34.814 92.3066 34.8056C92.424 34.8082 92.5415 34.8018 92.6583 34.7863L92.5076 35.8104C92.2636 35.8822 92.0108 35.916 91.7571 35.9102C90.9972 35.9102 90.6361 35.5109 90.6361 34.9441C90.6393 34.6672 90.6688 34.3909 90.724 34.1197L91.06 32.3743H90.5137L90.6895 31.3889H91.2453L91.4211 30.4582L92.7179 30.1426Z" fill="black"/>
      <path d="M93.3457 35.8073L94.1684 31.3825H95.4244L94.6048 35.8073H93.3457ZM94.3411 30.1975C94.3411 30.0994 94.3602 30.0023 94.397 29.9117C94.434 29.8213 94.488 29.7392 94.5559 29.6703C94.624 29.6014 94.7047 29.547 94.7936 29.5104C94.8821 29.4737 94.9772 29.4555 95.0727 29.4568C95.1562 29.4526 95.2398 29.4665 95.3179 29.4974C95.3958 29.5283 95.4668 29.5756 95.5258 29.6362C95.5848 29.6969 95.631 29.7695 95.6611 29.8496C95.6913 29.9296 95.7048 30.0152 95.7007 30.1008C95.7029 30.2009 95.6844 30.3002 95.647 30.3925C95.6093 30.4849 95.5538 30.5682 95.4831 30.6373C95.4125 30.7064 95.3286 30.7596 95.2369 30.7936C95.1452 30.8277 95.0476 30.8418 94.9502 30.8351C94.8664 30.8413 94.7819 30.8289 94.7031 30.7988C94.624 30.7686 94.5524 30.7214 94.4927 30.6603C94.4331 30.5992 94.3872 30.5256 94.3577 30.4447C94.3282 30.3637 94.3163 30.2772 94.3222 30.191" fill="black"/>
      <path d="M100.234 33.1022C100.234 34.7124 99.1571 35.9071 97.6593 35.9071C97.4188 35.9245 97.1776 35.8897 96.9513 35.805C96.7252 35.72 96.5189 35.587 96.3462 35.4144C96.1738 35.2421 96.0384 35.0341 95.9499 34.8041C95.8614 34.5745 95.8209 34.3282 95.8318 34.0812C95.8318 32.5419 96.8743 31.2859 98.4066 31.2859C98.6459 31.27 98.8858 31.3057 99.1109 31.3908C99.3358 31.476 99.5408 31.6085 99.7129 31.78C99.8849 31.9515 100.02 32.1581 100.109 32.3863C100.198 32.6146 100.24 32.8597 100.231 33.1054M97.1444 34.0554C97.1444 34.5707 97.3924 34.9152 97.832 34.9152C98.5291 34.9152 98.9185 33.8751 98.9185 33.1151C98.9185 32.7093 98.752 32.2746 98.2402 32.2746C97.5086 32.2746 97.1381 33.3695 97.1475 34.0554" fill="black"/>
      <path d="M100.615 35.8065L101.162 32.8213C101.268 32.2609 101.337 31.7714 101.391 31.3818H102.518L102.43 32.116H102.449C102.615 31.8597 102.841 31.6497 103.105 31.5047C103.37 31.3597 103.665 31.2843 103.966 31.2852C104.672 31.2852 105.068 31.7296 105.068 32.4896C105.06 32.7411 105.036 32.9919 104.996 33.2399L104.518 35.8162H103.262L103.711 33.3655C103.739 33.2016 103.754 33.0357 103.755 32.8696C103.755 32.5475 103.648 32.3447 103.331 32.3447C102.917 32.3447 102.433 32.8792 102.254 33.855L101.893 35.8194L100.615 35.8065Z" fill="black"/>
      <path d="M108.359 29.8266C108.868 29.7122 109.388 29.6571 109.91 29.6624C110.461 29.6356 111.007 29.7768 111.48 30.0681C111.685 30.2091 111.852 30.4014 111.964 30.6267C112.077 30.8521 112.132 31.1032 112.124 31.3563C112.129 31.6882 112.058 32.0169 111.917 32.3156C111.776 32.6145 111.568 32.875 111.31 33.076C110.758 33.4675 110.097 33.6643 109.426 33.6363C109.252 33.6363 109.078 33.6247 108.905 33.6009L108.5 35.8004H107.244L108.359 29.8266ZM109.1 32.5478C109.259 32.58 109.421 32.5952 109.583 32.5929C110.35 32.5929 110.839 32.0873 110.839 31.4787C110.839 30.87 110.425 30.6993 109.932 30.6993C109.76 30.6942 109.588 30.7093 109.42 30.7444L109.1 32.5478Z" fill="black"/>
      <path d="M114.827 35.807C114.827 35.5429 114.862 35.2466 114.89 34.9278H114.865C114.737 35.2119 114.533 35.4534 114.277 35.6241C114.021 35.7951 113.723 35.8885 113.418 35.8939C112.642 35.8939 112.111 35.2789 112.111 34.3546C112.111 32.8636 113.072 31.2695 115.198 31.2695C115.682 31.2721 116.163 31.3448 116.627 31.4853L116.168 33.8007C116.052 34.4573 115.996 35.1236 116.002 35.7909L114.827 35.807ZM115.207 32.3065C115.093 32.2843 114.978 32.2723 114.862 32.2711C114.042 32.2711 113.443 33.3016 113.443 34.126C113.443 34.5607 113.609 34.8602 113.964 34.8602C114.319 34.8602 114.812 34.4158 115.006 33.3305L115.207 32.3065Z" fill="black"/>
      <path d="M116.934 35.807L117.417 33.176C117.54 32.5061 117.593 31.7655 117.637 31.3855H118.739C118.714 31.685 118.686 31.9812 118.661 32.2904H118.686C118.802 32.0088 118.992 31.7658 119.235 31.5884C119.478 31.411 119.764 31.3062 120.061 31.2856C120.141 31.2811 120.22 31.2811 120.3 31.2856L120.052 32.5512C119.984 32.5464 119.916 32.5464 119.848 32.5512C119.037 32.5512 118.657 33.2919 118.497 34.1614L118.183 35.807H116.934Z" fill="black"/>
      <path d="M122.87 30.1426L122.641 31.3824H123.558L123.369 32.3743H122.452L122.16 33.875C122.12 34.0592 122.097 34.2466 122.088 34.4353C122.08 34.4859 122.084 34.5377 122.099 34.5863C122.114 34.635 122.141 34.6794 122.176 34.7158C122.211 34.7519 122.254 34.7789 122.302 34.7947C122.349 34.8101 122.4 34.814 122.449 34.8056C122.567 34.8082 122.684 34.8018 122.801 34.7863L122.65 35.8104C122.406 35.8822 122.153 35.916 121.9 35.9102C121.14 35.9102 120.779 35.5109 120.779 34.9441C120.782 34.6672 120.811 34.3909 120.867 34.1197L121.203 32.355H120.656L120.832 31.3695H121.388L121.564 30.4388L122.87 30.1426Z" fill="black"/>
      <path d="M123.496 35.8065L124.042 32.8213C124.149 32.2609 124.218 31.7714 124.272 31.3818H125.399L125.311 32.116H125.33C125.496 31.8597 125.721 31.6497 125.986 31.5047C126.251 31.3597 126.546 31.2843 126.846 31.2852C127.553 31.2852 127.949 31.7296 127.949 32.4896C127.941 32.7411 127.917 32.9919 127.876 33.2399L127.399 35.8162H126.143L126.592 33.3655C126.62 33.2016 126.635 33.0357 126.636 32.8696C126.636 32.5475 126.529 32.3447 126.212 32.3447C125.798 32.3447 125.314 32.8792 125.135 33.855L124.774 35.8194L123.496 35.8065Z" fill="black"/>
      <path d="M132.071 35.5524C131.568 35.7888 131.019 35.9066 130.466 35.897C129.232 35.897 128.582 35.1821 128.582 34.0324C128.582 32.6831 129.524 31.2822 131.094 31.2822C131.967 31.2822 132.592 31.7782 132.592 32.6026C132.592 33.7329 131.524 34.1419 129.797 34.0968C129.8 34.2565 129.846 34.4127 129.929 34.5476C130.031 34.6674 130.16 34.7608 130.304 34.8207C130.448 34.8806 130.603 34.9051 130.758 34.8922C131.177 34.8958 131.59 34.7998 131.967 34.6121L132.071 35.5524ZM130.95 32.2322C130.704 32.2419 130.469 32.3382 130.284 32.505C130.1 32.6715 129.976 32.8982 129.935 33.1468C130.924 33.1468 131.417 33.0115 131.417 32.6122C131.417 32.3868 131.242 32.2322 130.95 32.2322Z" fill="black"/>
      <path d="M132.881 35.807L133.364 33.176C133.487 32.5061 133.54 31.7655 133.584 31.3855H134.686C134.661 31.685 134.633 31.9812 134.608 32.2904H134.633C134.749 32.0088 134.939 31.7658 135.182 31.5884C135.425 31.411 135.711 31.3062 136.008 31.2856C136.088 31.2811 136.167 31.2811 136.247 31.2856L135.999 32.5512C135.931 32.5464 135.863 32.5464 135.795 32.5512C134.985 32.5512 134.605 33.2919 134.445 34.1614L134.131 35.807H132.881Z" fill="black"/>
      <path d="M1.14938 11.1911C1.14938 9.50042 1.12112 8.04482 1.0332 6.70838H3.26259L3.37877 9.55838H3.46669C4.09468 7.62618 5.66468 6.41211 7.37284 6.41211C7.60516 6.41549 7.83699 6.43485 8.06677 6.47008V8.93364C7.77812 8.87792 7.48427 8.85525 7.19072 8.86601C5.39464 8.86601 4.12294 10.2314 3.7744 12.1894C3.71409 12.5922 3.68469 12.9992 3.68648 13.4067V21.0743H1.14938V11.1911Z" fill="#E52445"/>
      <path d="M11.7409 14.3656C11.7974 17.9079 13.9703 19.3506 16.5451 19.3506C17.875 19.3973 19.1986 19.1445 20.423 18.61L20.8846 20.481C19.4026 21.1234 17.805 21.4373 16.1966 21.402C11.901 21.3988 9.31055 18.4618 9.31055 14.1272C9.31055 9.79267 11.8006 6.39844 15.8794 6.39844C20.4826 6.41132 21.6664 10.5076 21.6664 13.1483C21.6751 13.556 21.6457 13.9636 21.5785 14.3656H11.7409ZM19.2078 12.4945C19.2361 10.8618 18.5421 8.28233 15.669 8.28233C13.066 8.28233 11.9638 10.6879 11.7629 12.4978L19.2078 12.4945Z" fill="#E52445"/>
      <path d="M36.8894 0V17.3641C36.8894 18.6522 36.946 20.0949 37.0056 21.0739H34.748L34.6318 18.5813H34.5439C33.7903 20.1915 32.1135 21.4024 29.834 21.4024C26.4491 21.4024 23.8147 18.4654 23.8147 14.1019C23.7864 9.32288 26.7097 6.41491 30.0946 6.41491C32.2642 6.41491 33.6835 7.45508 34.3178 8.5822H34.3774V0H36.8894ZM34.3774 12.5593C34.3818 12.1898 34.3429 11.8211 34.2613 11.4612C34.0732 10.6066 33.6063 9.84354 32.9374 9.29831C32.2689 8.7531 31.4387 8.45841 30.5845 8.46305C27.95 8.46305 26.3895 10.8364 26.3895 13.9827C26.3895 16.881 27.8087 19.2963 30.528 19.2963C31.4026 19.2875 32.2485 18.9743 32.9268 18.4079C33.605 17.8415 34.0757 17.0556 34.2613 16.179C34.3457 15.8097 34.385 15.4311 34.3774 15.0519V12.5593Z" fill="#E52445"/>
      <path d="M76.3837 0V17.3641C76.3837 18.6522 76.4403 20.0949 76.4999 21.0739H74.2423L74.1261 18.5813H74.0382C73.2846 20.1915 71.6078 21.4024 69.3282 21.4024C65.9433 21.4024 63.3088 18.4654 63.3088 14.1019C63.2805 9.32288 66.2039 6.41491 69.5888 6.41491C71.7585 6.41491 73.1778 7.45508 73.8121 8.5822H73.8717V0H76.3837ZM73.8717 12.5593C73.8783 12.1835 73.8407 11.8082 73.7587 11.4419C73.5706 10.5873 73.1034 9.82422 72.4349 9.27898C71.7661 8.73378 70.9358 8.43909 70.0818 8.44372C67.4473 8.44372 65.8867 10.8171 65.8867 13.9634C65.8867 16.8617 67.306 19.2769 70.0252 19.2769C70.8975 19.269 71.7419 18.9581 72.4198 18.3949C73.098 17.8317 73.5697 17.0494 73.7587 16.1758C73.8432 15.8065 73.8821 15.4278 73.8749 15.0486L73.8717 12.5593Z" fill="#E52445"/>
      <path d="M83.4707 2.67274C83.4783 2.89068 83.4409 3.10781 83.3615 3.31009C83.282 3.51239 83.1621 3.69531 83.0095 3.84708C82.8569 3.99883 82.6748 4.11605 82.4751 4.19111C82.2754 4.26618 82.0625 4.29745 81.8505 4.28289C81.6445 4.28801 81.4401 4.24956 81.2492 4.16996C81.0586 4.09035 80.8859 3.97126 80.7424 3.82016C80.5986 3.66906 80.4865 3.48921 80.4137 3.29177C80.3405 3.09435 80.3081 2.88362 80.3182 2.67274C80.3125 2.45564 80.3502 2.23964 80.429 2.03806C80.5075 1.83647 80.6259 1.65356 80.7763 1.5006C80.9264 1.34764 81.1057 1.22786 81.3029 1.14865C81.5001 1.06944 81.7111 1.03247 81.9227 1.04002C82.1322 1.0341 82.341 1.07245 82.5354 1.1527C82.73 1.23295 82.9065 1.35338 83.0534 1.50651C83.2007 1.65964 83.3156 1.84219 83.3913 2.04281C83.467 2.24344 83.5012 2.45786 83.4927 2.67274M80.6667 6.70781H83.1787V21.0737H80.6353L80.6667 6.70781Z" fill="#E52445"/>
      <path d="M99.3875 18.9647C99.3875 22.2881 98.7218 24.2783 97.3904 25.5535C96.0026 26.8417 94.0338 27.2764 92.2691 27.2764C90.5924 27.2764 88.7398 26.861 87.6094 26.0881L88.2374 24.0689C89.4726 24.8471 90.8985 25.2481 92.3476 25.225C94.9507 25.225 96.8629 23.8306 96.8629 20.1788V18.6105H96.8064C96.0528 19.9469 94.5205 21.0161 92.3508 21.0161C88.8779 21.0161 86.3848 17.9889 86.3848 14.0118C86.3848 9.14589 89.4808 6.41504 92.7213 6.41504C95.1516 6.41504 96.4547 7.70318 97.0921 8.8786H97.1487L97.2366 6.71131H99.5068C99.4189 7.71928 99.3906 8.90758 99.3906 10.6305L99.3875 18.9647ZM96.841 12.3759C96.8576 11.9849 96.8086 11.5939 96.6965 11.2198C96.2349 9.67724 95.0166 8.43097 93.1358 8.43097C90.7054 8.43097 88.969 10.5371 88.969 13.8605C88.969 16.6815 90.3883 19.013 93.1075 19.013C93.8978 19.0169 94.6678 18.7591 95.3036 18.2782C95.9395 17.7972 96.4073 17.1186 96.6369 16.3433C96.7753 15.8923 96.8441 15.4218 96.841 14.9489V12.3759Z" fill="#E52445"/>
      <path d="M106.244 2.67237C106.252 2.89031 106.215 3.10745 106.135 3.30974C106.056 3.51201 105.936 3.69495 105.783 3.84673C105.63 3.99847 105.448 4.11569 105.248 4.19076C105.049 4.26582 104.836 4.29709 104.624 4.28254C104.418 4.28766 104.214 4.24921 104.023 4.1696C103.832 4.08996 103.66 3.97091 103.516 3.81981C103.372 3.66871 103.26 3.48882 103.187 3.29141C103.114 3.09398 103.082 2.88325 103.092 2.67237C103.086 2.45639 103.123 2.2415 103.202 2.0408C103.279 1.84011 103.397 1.65781 103.545 1.50504C103.695 1.35227 103.872 1.23221 104.068 1.1522C104.263 1.07219 104.473 1.03389 104.684 1.03966C104.893 1.03373 105.102 1.07209 105.296 1.15233C105.491 1.23259 105.667 1.35302 105.815 1.50614C105.962 1.65927 106.077 1.84182 106.152 2.04245C106.228 2.24307 106.262 2.45749 106.254 2.67237M103.428 6.70745H105.974V21.0734H103.428V6.70745Z" fill="#E52445"/>
      <path d="M113.247 3.26562V6.70817H116.892V8.69512H113.247V16.4433C113.247 18.2241 113.74 19.2321 115.156 19.2321C115.654 19.2526 116.152 19.1928 116.632 19.0549L116.748 21.0451C116.02 21.2913 115.257 21.4121 114.49 21.4026C113.984 21.4249 113.479 21.3385 113.008 21.1488C112.536 20.9591 112.109 20.6704 111.752 20.3012C111.058 19.4994 110.769 18.2241 110.769 16.5334V8.69834H108.6V6.70817H110.769V4.03529L113.247 3.26562Z" fill="#E52445"/>
      <path d="M129.598 17.6313C129.585 18.7823 129.652 19.9327 129.799 21.0739H127.516L127.312 19.264H127.224C126.727 19.9437 126.079 20.4921 125.334 20.864C124.59 21.2358 123.769 21.4204 122.941 21.4023C120.115 21.4023 118.658 19.3542 118.658 17.2771C118.658 13.8055 121.669 11.9055 127.08 11.9345V11.635C127.08 10.4789 126.766 8.31165 123.896 8.34064C122.6 8.32866 121.327 8.69983 120.231 9.40979L119.654 7.65792C121.061 6.82444 122.66 6.39404 124.285 6.41165C128.568 6.41165 129.623 9.40979 129.623 12.2598L129.598 17.6313ZM127.139 13.7411C124.36 13.6832 121.208 14.1855 121.208 16.9615C121.208 18.6844 122.307 19.454 123.582 19.454C124.332 19.481 125.071 19.2624 125.692 18.83C126.313 18.3975 126.784 17.7735 127.036 17.0484C127.113 16.7786 127.152 16.4988 127.152 16.2176L127.139 13.7411Z" fill="#E52445"/>
      <path d="M136.254 0H133.707V21.0739H136.254V0Z" fill="#E52445"/>
      <path d="M57.117 14.4563C57.117 15.8372 56.7179 17.187 55.9696 18.3351C55.2217 19.4833 54.1585 20.3781 52.9147 20.9065C51.6707 21.435 50.3019 21.5732 48.9812 21.3038C47.6609 21.0345 46.4479 20.3695 45.4958 19.3931C44.5438 18.4167 43.8954 17.1727 43.6329 15.8183C43.3701 14.464 43.5048 13.0603 44.0201 11.7845C44.5353 10.5088 45.4079 9.41837 46.5273 8.65123C47.6471 7.88408 48.963 7.47461 50.3095 7.47461C51.2034 7.47461 52.0886 7.65517 52.9147 8.00606C53.7405 8.35692 54.491 8.87117 55.1231 9.51949C55.7552 10.1678 56.2566 10.9374 56.5989 11.7845C56.9408 12.6316 57.117 13.5394 57.117 14.4563Z" fill="#E52445"/>
    </g>
  </g>
  <defs>
    <clipPath id="clip0_55_7785">
      <rect width="136.276" height="38" fill="white"/>
    </clipPath>
  </defs>
</svg>